<svg xmlns="http://www.w3.org/2000/svg" width="51" height="51" viewBox="0 0 51 51">
  <g id="Raggruppa_2" data-name="Raggruppa 2" transform="translate(0.5 0.5)">
    <path id="Unione_2" data-name="Unione 2" d="M11.719,50A11.719,11.719,0,0,1,0,38.281V11.719A11.719,11.719,0,0,1,11.719,0H38.281A11.719,11.719,0,0,1,50,11.719V38.281A11.719,11.719,0,0,1,38.281,50Zm3.125-11.688H25.775c5.8,0,9.289-2.838,9.289-7.519,0-3.538-2.492-6.1-6.193-6.506V24.14a5.942,5.942,0,0,0,4.852-5.787c0-4.018-3.172-6.635-8.005-6.635H14.844Zm4.229-3.372h0V26.186h5.588c4,0,6.079,1.474,6.079,4.349s-2.02,4.4-5.834,4.4Zm0-11.905V15.091H24.7c3.059,0,4.8,1.364,4.8,3.833,0,2.635-2.02,4.11-5.683,4.11Z" transform="translate(0 0)" fill="#5f53fe" stroke="rgba(0,0,0,0)" stroke-miterlimit="10" stroke-width="1"/>
  </g>
</svg>
