<svg xmlns="http://www.w3.org/2000/svg" width="50" height="50" viewBox="0 0 50 50">
  <path id="icon" d="M-2779-1406h-30a10.011,10.011,0,0,1-10-10v-30a10.011,10.011,0,0,1,10-10h30a10.011,10.011,0,0,1,10,10v30A10.011,10.011,0,0,1-2779-1406Zm-28.664-20.594h0l.874,9.8,12.78,3.548.028-.008,12.768-3.54.094-1.055,1.466-16.424.153-1.675,1.126-12.627h-31.25l.567,6.238h23.845l-.568,6.389H-2808.5l.559,6.239h21.622l-.724,8.091-6.958,1.877-.006,0-6.948-1.876-.444-4.976h-6.263Z" transform="translate(2819 1456)" fill="#5f53fe"/>
</svg>
