<svg id="dart" xmlns="http://www.w3.org/2000/svg" xmlns:xlink="http://www.w3.org/1999/xlink" width="50" height="50" viewBox="0 0 50 50">
  <defs>
    <clipPath id="clip-path">
      <rect id="Rettangolo_18" data-name="Rettangolo 18" width="50" height="50" fill="#5f53fe"/>
    </clipPath>
  </defs>
  <g id="Raggruppa_10" data-name="Raggruppa 10" clip-path="url(#clip-path)">
    <path id="Tracciato_34" data-name="Tracciato 34" d="M40,0H10A10,10,0,0,0,0,10V40A10,10,0,0,0,10,50H40A10,10,0,0,0,50,40V10A10,10,0,0,0,40,0M23.15,41.84l-5.63-5.6a7.856,7.856,0,0,1-1.24-1.88l10.9,3.85,5.9,2.08,3.25-1.44-.96,3Zm-7.39-9.25-.01-.01a3.828,3.828,0,0,1-.08-.67L15.63,16.6,36.25,37.23l-3.23,1.44Zm23,.35-1.44,3.23L16.63,15.48l14.55-.01.8.03.36.03c.03.01.06.01.09.02v.09l.23.02Zm1.61.06L34.43,16.17a7.8,7.8,0,0,1,1.87,1.24l5.41,5.43L41.7,35.37l-2.77.88ZM32.08,14.01h-.04l-14.73-.03,8.5-5.63.1-.08c.24-.22,1.08-.08,1.81.63l3.94,3.92.37,1.06ZM8.42,25.82l5.64-8.51.01,13.88.03.78-1.12-.39L9.06,27.63c-.72-.73-.86-1.57-.64-1.81" fill="#5f53fe"/>
  </g>
</svg>
