<svg xmlns="http://www.w3.org/2000/svg" width="50" height="50" viewBox="0 0 50 50">
  <g id="JavaScript" transform="translate(0 -0.388)">
    <path id="Sottrazione_1" data-name="Sottrazione 1" d="M40,50H10A10.012,10.012,0,0,1,0,40V10A10.011,10.011,0,0,1,10,0H40A10.012,10.012,0,0,1,50,10V40A10.012,10.012,0,0,1,40,50ZM33.588,39.065,29.762,41.28A8.439,8.439,0,0,0,32.921,44.7a10.28,10.28,0,0,0,5.4,1.38,8.822,8.822,0,0,0,5.567-1.686,5.975,5.975,0,0,0,2.219-4.858c0-3.938-2.289-5.689-6.243-7.384l-1.174-.5c-1.962-.851-2.886-1.41-2.886-2.853a2.048,2.048,0,0,1,2.249-2.013,3.208,3.208,0,0,1,3.02,2.013l3.659-2.349a6.927,6.927,0,0,0-6.679-3.759c-4.051,0-6.881,2.553-6.881,6.209A6.38,6.38,0,0,0,32.72,33.33a11.127,11.127,0,0,0,4.09,2.648l1.174.5c2.135.934,3.424,1.5,3.424,3.121,0,1.386-1.281,2.317-3.189,2.317A5.158,5.158,0,0,1,33.588,39.065Zm-16.615.4-3.826,2.316a7.369,7.369,0,0,0,2.529,3.029A7.909,7.909,0,0,0,20.2,46.079a7.13,7.13,0,0,0,5.068-1.716A7.052,7.052,0,0,0,27.21,39V22.955h-4.7V38.931a3.278,3.278,0,0,1-.679,2.357,2.427,2.427,0,0,1-1.838.6C18.335,41.884,17.673,40.71,16.973,39.468Z" transform="translate(0 0.388)" fill="#5f53fe"/>
  </g>
</svg>
