<svg id="laravel" xmlns="http://www.w3.org/2000/svg" xmlns:xlink="http://www.w3.org/1999/xlink" width="50" height="50" viewBox="0 0 50 50">
  <defs>
    <clipPath id="clip-path">
      <rect id="Rettangolo_20" data-name="Rettangolo 20" width="50" height="50" fill="none"/>
    </clipPath>
  </defs>
  <g id="Raggruppa_12" data-name="Raggruppa 12" clip-path="url(#clip-path)">
    <path id="Tracciato_36" data-name="Tracciato 36" d="M14.689,31.473a.243.243,0,0,1-.05-.039.7.7,0,0,1-.09-.108.546.546,0,0,1-.04-.054.756.756,0,0,1-.059-.131.3.3,0,0,1-.026-.065.816.816,0,0,1-.023-.145h0a.284.284,0,0,1-.007-.058V16l-5.03-2.94V34.173L21,40.964V35.11L14.79,31.549a.767.767,0,0,1-.1-.076" fill="#5f53fe"/>
    <path id="Tracciato_37" data-name="Tracciato 37" d="M20.2,11.649,15.184,8.722,10.166,11.65l5.016,2.929Z" fill="#5f53fe"/>
    <path id="Tracciato_38" data-name="Tracciato 38" d="M22.6,40.963l11.634-6.791v-5.8L22.6,35.108Z" fill="#5f53fe"/>
    <path id="Tracciato_39" data-name="Tracciato 39" d="M8.177,11.259Z" fill="#5f53fe"/>
    <path id="Tracciato_40" data-name="Tracciato 40" d="M15.984,29.44,21,26.512V13.058l-5.017,2.928Z" fill="#5f53fe"/>
    <path id="Tracciato_41" data-name="Tracciato 41" d="M28.419,24.051,16.794,30.834l5,2.875,11.632-6.733Z" fill="#5f53fe"/>
    <path id="Tracciato_42" data-name="Tracciato 42" d="M40,0H10A10,10,0,0,0,0,10V40A10,10,0,0,0,10,50H40A10,10,0,0,0,50,40V10A10,10,0,0,0,40,0m2.457,23.115a.8.8,0,0,1-.4.7l-6.219,3.627v7.195a.816.816,0,0,1-.4.7L22.2,43.067a.891.891,0,0,1-.144.06l-.065.023a.754.754,0,0,1-.192.025.858.858,0,0,1-.174-.019h-.034l-.084-.041a.62.62,0,0,1-.1-.043L8.165,35.34a.806.806,0,0,1-.29-.29.823.823,0,0,1-.108-.406V11.655a.806.806,0,0,1,.019-.177v-.034l.041-.085a.481.481,0,0,1,.04-.1.641.641,0,0,1,.073-.1.327.327,0,0,1,.047-.063.778.778,0,0,1,.1-.085.357.357,0,0,1,.065-.051l6.63-3.871a.793.793,0,0,1,.8,0L22.2,10.953a1.115,1.115,0,0,1,.1.072.5.5,0,0,1,.054.043.757.757,0,0,1,.1.12l.037.051a.908.908,0,0,1,.064.144l.024.064a.827.827,0,0,1,.026.207V25.575l5.014-2.928V15.452a.788.788,0,0,1,.019-.175v-.035l.042-.086a.558.558,0,0,1,.039-.1l.052-.077a.889.889,0,0,1,.071-.091.787.787,0,0,1,.1-.085A.258.258,0,0,1,28,14.761l6.633-3.873a.791.791,0,0,1,.8,0l6.618,3.864a.922.922,0,0,1,.1.073.634.634,0,0,1,.062.05.865.865,0,0,1,.086.107l.043.06a.783.783,0,0,1,.062.143l.021.057a.825.825,0,0,1,.027.211Z" fill="#5f53fe"/>
    <path id="Tracciato_43" data-name="Tracciato 43" d="M41.932,14.968Z" fill="#5f53fe"/>
    <path id="Tracciato_44" data-name="Tracciato 44" d="M35.838,25.576l5.016-2.928V16.856l-5.016,2.928Z" fill="#5f53fe"/>
    <path id="Tracciato_45" data-name="Tracciato 45" d="M35.038,12.521l-5.017,2.929,5.017,2.928,5.016-2.929Z" fill="#5f53fe"/>
    <path id="Tracciato_46" data-name="Tracciato 46" d="M29.22,22.645l5.016,2.928V19.781L29.22,16.853Z" fill="#5f53fe"/>
  </g>
</svg>
