<?xml version="1.0" encoding="utf-8"?>
<!-- Generator: Adobe Illustrator 27.0.1, SVG Export Plug-In . SVG Version: 6.00 Build 0)  -->
<svg version="1.1" id="Livello_1" xmlns="http://www.w3.org/2000/svg" xmlns:xlink="http://www.w3.org/1999/xlink" x="0px" y="0px"
	 viewBox="0 0 24 24" style="enable-background:new 0 0 24 24;" xml:space="preserve">
<path d="M12,18c-3.3,0-6-2.7-6-6s2.7-6,6-6s6,2.7,6,6S15.3,18,12,18z M12,16c2.2,0,4-1.8,4-4s-1.8-4-4-4s-4,1.8-4,4S9.8,16,12,16z
	 M11,1h2v3h-2V1z M11,20h2v3h-2V20z M3.5,4.9l1.4-1.4l2.1,2.1L5.6,7.1L3.5,4.9L3.5,4.9z M17,18.4l1.4-1.4l2.1,2.1l-1.4,1.4L17,18.4z
	 M19.1,3.5l1.4,1.4l-2.1,2.1L17,5.6L19.1,3.5L19.1,3.5z M5.6,17l1.4,1.4l-2.1,2.1l-1.4-1.4C3.5,19.1,5.6,17,5.6,17z M23,11v2h-3v-2
	H23z M4,11v2H1v-2H4z"/>
</svg>
