<svg xmlns="http://www.w3.org/2000/svg" width="50" height="50" viewBox="0 0 50 50">
  <g id="MySQL-Light" transform="translate(0)">
    <path id="Sottrazione_3" data-name="Sottrazione 3" d="M-3073-1282h-30a10.012,10.012,0,0,1-10-10v-30a10.011,10.011,0,0,1,10-10h30a10.011,10.011,0,0,1,10,10v30A10.012,10.012,0,0,1-3073-1282Zm-.962-15.363a10.24,10.24,0,0,0-4.033.671,2.512,2.512,0,0,1-.3.091c-.315.082-.64.166-.675.5a1.071,1.071,0,0,1,.219.406,1.782,1.782,0,0,0,.161.351,5.588,5.588,0,0,0,1.238,1.442l1.523,1.088a13.43,13.43,0,0,0,1.423.722,12.667,12.667,0,0,1,1.456.744c.3.188.6.409.889.624l.006,0c.222.163.451.332.676.484a1.911,1.911,0,0,1,.257.234h.123v-.448l-.714-.685a11.154,11.154,0,0,0-2.475-2.389c-.2-.135-.457-.283-.732-.44-.791-.453-1.775-1.016-2-1.664l-.047-.053a9.433,9.433,0,0,0,1.515-.343l.127-.036a7.842,7.842,0,0,1,1.185-.189,8.188,8.188,0,0,0,1.193-.189l1.144-.332v-.211a6.149,6.149,0,0,1-.541-.647,5.222,5.222,0,0,0-.649-.748,31.582,31.582,0,0,0-3.927-2.91,10.491,10.491,0,0,0-1.5-.74l0,0h0c-.326-.14-.662-.284-.967-.439a2.777,2.777,0,0,0-.327-.126,1.222,1.222,0,0,1-.6-.325,5.755,5.755,0,0,1-.729-1.3l-.008-.017c-.077-.168-.156-.341-.239-.507l-1.951-4.116c-.156-.335-.291-.675-.422-1a10.712,10.712,0,0,0-.792-1.693,23.884,23.884,0,0,0-9.211-8.846,10.264,10.264,0,0,0-2.745-.9l-.3-.068-1.785-.094a2.86,2.86,0,0,1-.664-.483,3.8,3.8,0,0,0-.431-.345,8.837,8.837,0,0,0-3.97-1.475,1.868,1.868,0,0,0-1.885,1.21c-.532,1.272.472,2.532,1.137,3.366.141.177.263.33.357.465.088.119.184.242.268.351a8.127,8.127,0,0,1,.948,1.422,5.048,5.048,0,0,1,.186.615,5.491,5.491,0,0,0,.193.639c.088.24.175.486.271.761a19.358,19.358,0,0,0,.967,2.409l0,.005a12,12,0,0,0,.877,1.462,1.515,1.515,0,0,0,.226.234.934.934,0,0,1,.368.569,3.063,3.063,0,0,0-.388,1.128,6.467,6.467,0,0,1-.159.646,10.417,10.417,0,0,0,.69,7.952c.417.647,1.074,1.507,1.956,1.507a1.435,1.435,0,0,0,.543-.111c.765-.3.864-1.094.968-1.929a7.928,7.928,0,0,1,.174-1.028,1.993,1.993,0,0,0,.046-.277.714.714,0,0,1,.12-.385v.053l.977,1.963a13.681,13.681,0,0,0,3.094,3.171,5.327,5.327,0,0,1,.6.554,3.231,3.231,0,0,0,1.137.865v-.071h-.047a1.268,1.268,0,0,0-.347-.32l-.008-.006c-.064-.046-.13-.093-.192-.147a11.728,11.728,0,0,1-1.237-1.418,30.245,30.245,0,0,1-2.666-4.3c-.363-.7-.689-1.475-.976-2.16l-.046-.11a1.879,1.879,0,0,1-.119-.348.793.793,0,0,0-.263-.5c-.125.181-.266.35-.416.528a4.213,4.213,0,0,0-.728,1.08,9.381,9.381,0,0,0-.572,2.759l0,.041c-.028.252-.056.512-.09.772l-.045.01h0c-.019,0-.019,0-.026.014a.27.27,0,0,1-.02.027c-.692-.171-.966-.821-1.231-1.45l-.077-.181a10.224,10.224,0,0,1-.215-6.315c.032-.1.087-.236.144-.385.256-.66.683-1.763.452-2.146a1.745,1.745,0,0,0-.531-.7,2.83,2.83,0,0,1-.35-.368,9.571,9.571,0,0,1-.856-1.515,20.231,20.231,0,0,1-.674-1.914,17.844,17.844,0,0,0-.8-2.2,9.82,9.82,0,0,0-.973-1.519l-.218-.3c-.155-.219-.315-.415-.47-.606a5.873,5.873,0,0,1-.839-1.24c-.139-.31-.275-.7-.1-.97a.374.374,0,0,1,.333-.308.529.529,0,0,1,.349-.1,3.463,3.463,0,0,1,1.15.311,12.238,12.238,0,0,1,2.356,1.182,3.993,3.993,0,0,1,.335.281,2.133,2.133,0,0,0,.783.525h.5a6.68,6.68,0,0,0,1.086.11,5.327,5.327,0,0,1,1.245.155,15.206,15.206,0,0,1,3.428,1.632,21.036,21.036,0,0,1,7.425,8.09,7.228,7.228,0,0,1,.377.889c.086.23.174.469.29.719.263.608.561,1.229.849,1.83l0,.01c.259.541.528,1.1.764,1.637l.1.213.048.107a13.882,13.882,0,0,0,1.547,2.85,3.711,3.711,0,0,0,1.694.778c.279.083.542.161.733.239s.407.161.641.244l.005,0a5.837,5.837,0,0,1,1,.417c.805.495,1.62,1.066,2.38,1.609.1.072.242.162.412.267.49.3,1.16.717,1.227,1.066C-3073.565-1297.359-3073.759-1297.363-3073.962-1297.363Zm-24.615-20.374a2.808,2.808,0,0,0,.454.6,4.334,4.334,0,0,1,.309.367l.547,1.135.047-.051a1.338,1.338,0,0,0,.5-1.183,1.1,1.1,0,0,1-.164-.274,1.306,1.306,0,0,0-.122-.222,1.21,1.21,0,0,0-.378-.341,1.842,1.842,0,0,1-.265-.2h-.041a3.8,3.8,0,0,0-.934.118v.053Z" transform="translate(3113 1332)" fill="#5f53fe"/>
  </g>
</svg>
