<svg xmlns="http://www.w3.org/2000/svg" width="49.999" height="50" viewBox="0 0 49.999 50">
  <g id="PHP-Light" transform="translate(0 0)">
    <path id="Sottrazione_2" data-name="Sottrazione 2" d="M-3094-1384h-30a10.011,10.011,0,0,1-10-10v-30a10.011,10.011,0,0,1,10-10h30a10.011,10.011,0,0,1,10,10v30A10.011,10.011,0,0,1-3094-1384Zm-6.087-30.554h0l-2.941,14.743h2.858l.781-3.907h2.468a10.183,10.183,0,0,0,2.426-.287,4.613,4.613,0,0,0,2.2-1.357,6.4,6.4,0,0,0,1.317-1.892,7.289,7.289,0,0,0,.637-2.138,4.708,4.708,0,0,0-.72-3.763,4.279,4.279,0,0,0-3.516-1.4Zm-24.377,0h0l-2.94,14.743h2.858l.781-3.907h2.467a10.184,10.184,0,0,0,2.426-.287,4.62,4.62,0,0,0,2.2-1.357,6.388,6.388,0,0,0,1.316-1.892,7.23,7.23,0,0,0,.637-2.138,4.709,4.709,0,0,0-.719-3.763,4.282,4.282,0,0,0-3.516-1.4Zm14.565,2.385h0l2.282.021a1.752,1.752,0,0,1,1.418.432,1.863,1.863,0,0,1,.124,1.46l-1.317,6.538h2.879l1.378-6.847c.286-1.528.078-2.579-.617-3.125a5.142,5.142,0,0,0-3.125-.864h-2.551l.8-3.928h-2.838l-2.961,14.764h2.838l1.686-8.45Zm11.714,6.149h-.482a1.5,1.5,0,0,1-.247-.02l1.23-6.148h.414c.15,0,.3-.007.474-.021h.19a9,9,0,0,1,2.545.309c.736.218.985,1.056.74,2.488-.3,1.706-.9,2.716-1.769,3A10.535,10.535,0,0,1-3098.186-1406.02Zm-24.377,0h-.482a1.509,1.509,0,0,1-.247-.02l1.229-6.148h.416c.147,0,.306-.007.473-.021h.19a8.992,8.992,0,0,1,2.545.309c.737.219.986,1.056.741,2.488-.3,1.706-.9,2.715-1.769,3A10.547,10.547,0,0,1-3122.563-1406.02Z" transform="translate(3134 1434)" fill="#5f53fe"/>
  </g>
</svg>
