<svg xmlns="http://www.w3.org/2000/svg" width="50" height="50" viewBox="0 0 50 50">
  <path id="icon" d="M-2737-1364h-30a10.011,10.011,0,0,1-10-10v-30a10.011,10.011,0,0,1,10-10h30a10.011,10.011,0,0,1,10,10v30A10.011,10.011,0,0,1-2737-1364Zm-16.832-39.651a15.8,15.8,0,0,0-5.22.929,27.579,27.579,0,0,0-9.192,5.277c-2.971,2.779-3.442,5.211-3.252,6.211.515,2.674,3.36,4.632,5.646,6.206l.005,0a23.446,23.446,0,0,1,1.979,1.456c-.07.04-.136.076-.2.109l-.007,0-.068.037c-1.105.548-4.783,2.495-5.712,4.557a3.712,3.712,0,0,0-.119,3.172,2.028,2.028,0,0,0,1.111,1.12,5.422,5.422,0,0,0,1.444.2,6.309,6.309,0,0,0,5.124-2.856,6.609,6.609,0,0,0,.584-6.068.122.122,0,0,0-.028-.043l.288-.169.022-.013.028-.017.439-.258c.47-.278.966-.557,1.434-.806a9.487,9.487,0,0,0-.507,2.6,5.458,5.458,0,0,0,1.163,3.765,1.294,1.294,0,0,0,.941.307c.864,0,1.241-.741,1.64-1.526.5-.989.958-2.14.977-2.189,0,.019-.373,2.06.3,2.863a.863.863,0,0,0,.694.316c.558,0,1.12-.7,1.405-1.119v.006s.015-.022.042-.071l.093-.149v-.014c.174-.3.7-1.226,1.5-2.81.966-1.9,1.923-4.34,1.932-4.364a12.368,12.368,0,0,0,.378,1.576,8.818,8.818,0,0,0,.564,1.31l.02.041c.077.156.156.318.229.475-.221.311-.365.491-.371.5l.007.007-.032.042c-.17.223-.364.477-.574.722l-.388.461-.038.045a14.814,14.814,0,0,0-1.407,1.79.625.625,0,0,0,.172.842,1.213,1.213,0,0,0,.725.164c.07,0,.147,0,.23-.007a4.342,4.342,0,0,0,1.434-.328,4.781,4.781,0,0,0,1.234-.649,2.778,2.778,0,0,0,1.184-2.432,4.835,4.835,0,0,0-.449-1.718c.035-.049.068-.1.1-.147l.011-.017c.031-.045.061-.09.093-.135a32.667,32.667,0,0,0,2.138-3.691,13.045,13.045,0,0,0,.379,1.573,8.071,8.071,0,0,0,.546,1.271l.029.058.117.239a6.719,6.719,0,0,0-2.083,2.688,2,2,0,0,0-.067,1.594.889.889,0,0,0,.631.423.784.784,0,0,0,.162.016,2.465,2.465,0,0,0,.879-.23,4.686,4.686,0,0,0,1.319-.677,2.893,2.893,0,0,0,1.454-2.41,4.544,4.544,0,0,0-.327-1.426,6.959,6.959,0,0,1,2.682-.5,9.541,9.541,0,0,1,1.1.067,4.7,4.7,0,0,1,3.367,1.618,2.5,2.5,0,0,1,.568,1.791,2.193,2.193,0,0,1-1.076,1.526l-.005,0c-.231.147-.309.2-.287.3s.069.138.176.138a1.2,1.2,0,0,0,.166-.016,2.65,2.65,0,0,0,1.847-2.361,3.738,3.738,0,0,0-1.084-2.722,5.805,5.805,0,0,0-4.288-1.642h-.047a8.086,8.086,0,0,0-3.537.82l-.174-.341a5.506,5.506,0,0,1-.617-1.492c-.012-.094-.025-.182-.037-.266a4.051,4.051,0,0,1-.035-1.274,7.9,7.9,0,0,1,.371-1.361,1.946,1.946,0,0,0,.093-.3c-.007-.068-.08-.407-.869-.414h-.045c-.775,0-1.418.154-1.5.358a8.558,8.558,0,0,0-.328,1.162,27.884,27.884,0,0,1-2.389,4.592l-.011-.018a5,5,0,0,1-.532-1.322c-.01-.081-.021-.158-.032-.232l0-.035a4.067,4.067,0,0,1-.034-1.273,7.9,7.9,0,0,1,.372-1.363,1.945,1.945,0,0,0,.092-.3c-.007-.068-.082-.406-.869-.413h-.052c-.772,0-1.412.153-1.489.357-.034.091-.072.241-.111.4l0,.007c-.055.219-.123.491-.215.756-.165.473-2.073,4.733-2.568,5.819-.219.481-.444.949-.635,1.318a.365.365,0,0,1-.028.058c-.132.257-.213.4-.214.406v.007c-.137.246-.231.371-.278.371a.01.01,0,0,1-.008,0,2.632,2.632,0,0,1,.022-1.207c.193-1,.56-2.355.779-3.165l0-.011c.106-.391.176-.65.174-.675a.122.122,0,0,1,0-.016v-.005c.047-.292-.1-.5-.446-.627a.96.96,0,0,0-.332-.066.607.607,0,0,0-.424.168c-.024.021-.04.034-.049.034-.048,0-.082.107-.085.119a3.092,3.092,0,0,0-.23-2.166,1.146,1.146,0,0,0-.954-.414,5.225,5.225,0,0,0-3.452,2.346c-.4.216-1.458.794-2.624,1.433-.336.188-.684.377-.99.544l-.271.148-.033-.035-.013-.015-.04-.043a19.909,19.909,0,0,0-2.375-2.029c-1.863-1.434-3.79-2.917-3.672-5.08a5.09,5.09,0,0,1,1.164-2.951,18.7,18.7,0,0,1,6.587-4.823,17.518,17.518,0,0,1,7.425-1.957c2.122,0,3.726.627,4.185,1.636a3.567,3.567,0,0,1-.426,3.208,9.226,9.226,0,0,1-3.113,3.112,12.477,12.477,0,0,1-5.225,1.795,7.5,7.5,0,0,1-.825.047,4.165,4.165,0,0,1-3.1-1.038c-.231-.25-.327-.339-.406-.339a.187.187,0,0,0-.093.033c-.2.1-.076.415-.005.6l.005.013a3.645,3.645,0,0,0,2.239,1.761,7.627,7.627,0,0,0,2.207.281,14.151,14.151,0,0,0,5.066-1,10.219,10.219,0,0,0,4.649-3.718,6.45,6.45,0,0,0,1.184-5.167,4.182,4.182,0,0,0-2.317-2.658A9.844,9.844,0,0,0-2753.831-1403.65Zm-13.043,27.092a1.187,1.187,0,0,1-.6-.136.856.856,0,0,1-.377-.685,3.754,3.754,0,0,1,1.318-2.845,18.126,18.126,0,0,1,2.646-1.975l.214-.129.039-.023.044-.026.4-.242c.042-.024.07-.038.077-.041l.015-.009.158-.1a4.87,4.87,0,0,1-1.163,4.777A4.153,4.153,0,0,1-2766.874-1376.558Zm17.413-3.658a.12.12,0,0,1-.063-.015.022.022,0,0,1-.012-.017c-.005-.042.082-.124.083-.125s.854-.92,1.184-1.327l.091-.115.016-.021c.167-.211.357-.45.555-.713v.093a2.677,2.677,0,0,1-1.525,2.126A.826.826,0,0,1-2749.462-1380.216Zm-8.109-.081a.158.158,0,0,1-.041-.005.363.363,0,0,1-.2-.2,5.6,5.6,0,0,1,.114-3.6,8.718,8.718,0,0,1,1.334-2.446,1.968,1.968,0,0,1,1.21-.75.264.264,0,0,1,.244.115c.2.358-.733,2.978-.991,3.615-.071.173-.155.393-.245.625C-2756.549-1381.889-2757.159-1380.3-2757.571-1380.3Zm13.657-1.225h0c-.141-.1-.05-.479.307-1.262a4.711,4.711,0,0,1,1.163-1.5,1.964,1.964,0,0,1,.114.656,2.123,2.123,0,0,1-1.583,2.1Z" transform="translate(2777 1414)" fill="#5f53fe"/>
</svg>
